<svg xmlns="http://www.w3.org/2000/svg" xmlns:xlink="http://www.w3.org/1999/xlink" viewBox="0,0,256,256" width="100px" height="100px"><g fill="#000000" fill-rule="nonzero" stroke="none" stroke-width="1" stroke-linecap="butt" stroke-linejoin="miter" stroke-miterlimit="10" stroke-dasharray="" stroke-dashoffset="0" font-family="none" font-weight="none" font-size="none" text-anchor="none" style="mix-blend-mode: normal"><g transform="scale(2.56,2.56)"><path d="M29.49219,16.99219c-0.02751,0.00034 -0.05495,0.00296 -0.08203,0.00781c-6.8225,0.01076 -12.41016,5.60481 -12.41016,12.42969v41.14062c0,6.83145 5.59824,12.42969 12.42969,12.42969h41.14062c6.83145,0 12.42969,-5.5972 12.42969,-12.42773v-41.14258c0,-6.83144 -5.5972,-12.42969 -12.42773,-12.42969h-40.98047c-0.03286,-0.00592 -0.06623,-0.00854 -0.09961,-0.00781zM30,19h40v44.2832c0,1.64714 -1.14146,3.06471 -2.75,3.41797l-31.78516,6.97656c-2.81791,0.61888 -5.46484,-1.50871 -5.46484,-4.39453v-23.7832c0.00255,-0.18032 -0.09219,-0.34804 -0.24794,-0.43894c-0.15575,-0.0909 -0.34838,-0.0909 -0.50413,0c-0.15575,0.0909 -0.25049,0.25863 -0.24794,0.43894v23.7832c0,3.50218 3.2596,6.12417 6.67969,5.37305l31.78516,-6.97852c2.06146,-0.45274 3.53516,-2.28367 3.53516,-4.39453v-44.26172c5.54126,0.22777 10,4.81208 10,10.4082v41.14258c0,5.73947 -4.68913,10.42773 -10.42969,10.42773h-41.14062c-5.74056,0 -10.42969,-4.68913 -10.42969,-10.42969v-41.14062c0,-5.59547 4.4586,-10.17943 10,-10.4082v7.47852c-0.00255,0.18032 0.09219,0.34804 0.24794,0.43894c0.15575,0.0909 0.34838,0.0909 0.50413,0c0.15575,-0.0909 0.25049,-0.25863 0.24794,-0.43894zM29.49219,28.99219c-0.13261,0.00207 -0.25896,0.05673 -0.35127,0.15197c-0.0923,0.09523 -0.14299,0.22324 -0.14092,0.35584v7c-0.00255,0.18032 0.09219,0.34804 0.24794,0.43894c0.15575,0.0909 0.34838,0.0909 0.50413,0c0.15575,-0.0909 0.25049,-0.25863 0.24794,-0.43894v-7c0.00212,-0.13532 -0.0507,-0.26572 -0.1464,-0.36141c-0.0957,-0.0957 -0.22609,-0.14852 -0.36141,-0.1464zM29.49219,38.99219c-0.13261,0.00207 -0.25896,0.05673 -0.35127,0.15197c-0.0923,0.09523 -0.14299,0.22324 -0.14092,0.35584v3c-0.00255,0.18032 0.09219,0.34804 0.24794,0.43894c0.15575,0.0909 0.34838,0.0909 0.50413,0c0.15575,-0.0909 0.25049,-0.25863 0.24794,-0.43894v-3c0.00212,-0.13532 -0.0507,-0.26572 -0.1464,-0.36141c-0.0957,-0.0957 -0.22609,-0.14852 -0.36141,-0.1464zM41.42773,45.66211c-2.26623,0 -4.12884,0.62765 -5.43555,1.71094c-1.30671,1.08329 -2.03711,2.62823 -2.03711,4.33984c0,1.46374 0.56606,2.70739 1.52539,3.67773c0.95933,0.97034 2.29226,1.68735 3.86914,2.23633c1.08275,0.38797 1.81212,0.74306 2.22266,1.08008c0.41126,0.33762 0.53125,0.59795 0.53125,1.04492c0,0.46129 -0.15865,0.77575 -0.5332,1.04102c-0.37455,0.26527 -1.00463,0.45508 -1.89258,0.45508c-1.66933,0 -3.33622,-0.55285 -4.39258,-1.09375c-0.13607,-0.06943 -0.29641,-0.07285 -0.43532,-0.00929c-0.13891,0.06356 -0.24115,0.18712 -0.27757,0.33547l-0.84961,3.44531c-0.05367,0.21939 0.04639,0.44752 0.24414,0.55664c1.16842,0.6455 3.27322,1.18359 5.46484,1.18359c2.61598,0 4.60129,-0.68153 5.93945,-1.81836c1.33816,-1.13683 1.99805,-2.72317 1.99805,-4.39648c0,-1.39722 -0.43003,-2.61462 -1.29687,-3.60156c-0.86608,-0.98606 -2.13804,-1.74249 -3.81055,-2.36133l-0.00391,-0.00195c-1.17937,-0.44778 -2.01163,-0.80337 -2.48828,-1.13672c-0.47741,-0.33388 -0.60352,-0.55144 -0.60352,-0.99219c0,-0.32594 0.12677,-0.60113 0.45898,-0.84375c0.33221,-0.24262 0.89446,-0.43359 1.7207,-0.43359c1.70792,0 2.93756,0.48891 3.63867,0.82617c0.13371,0.06439 0.2891,0.06606 0.42416,0.00456c0.13506,-0.06149 0.23583,-0.1798 0.27506,-0.32292l0.92969,-3.36328c0.0649,-0.23752 -0.05276,-0.48694 -0.27734,-0.58789c-1.15191,-0.51804 -2.75994,-0.97461 -4.9082,-0.97461zM53.5,46.5c-1.654,0 -3,1.346 -3,3c0,1.654 1.346,3 3,3c1.654,0 3,-1.346 3,-3c0,-1.654 -1.346,-3 -3,-3zM62.5,46.5c-1.654,0 -3,1.346 -3,3c0,1.654 1.346,3 3,3c1.654,0 3,-1.346 3,-3c0,-1.654 -1.346,-3 -3,-3zM41.42773,46.66211c1.7924,0 3.08734,0.35056 4.09375,0.75391l-0.6582,2.38086c-0.81583,-0.34172 -1.94418,-0.7168 -3.51758,-0.7168c-0.97776,0 -1.75376,0.21837 -2.31055,0.625c-0.55679,0.40663 -0.86914,1.02128 -0.86914,1.65234c0,0.73525 0.39441,1.36518 1.03125,1.81055c0.63684,0.44537 1.51235,0.7997 2.70898,1.25391c0.0013,0.00066 0.0026,0.00131 0.00391,0.00195c1.57928,0.58386 2.69801,1.27513 3.41016,2.08594c0.71215,0.81081 1.04883,1.74062 1.04883,2.94141c0,1.41668 -0.5304,2.6866 -1.64648,3.63477c-1.11609,0.94817 -2.84799,1.58008 -5.29102,1.58008c-1.84754,0 -3.62878,-0.47322 -4.63086,-0.9375l0.60742,-2.46094c1.15691,0.51423 2.63693,0.98047 4.26953,0.98047c1.02605,0 1.86075,-0.20669 2.4707,-0.63867c0.60995,-0.43198 0.95508,-1.11572 0.95508,-1.85742c0,-0.70103 -0.31649,-1.34223 -0.89648,-1.81836c-0.57999,-0.47613 -1.39631,-0.84577 -2.52539,-1.25c-0.0013,-0.00066 -0.0026,-0.00131 -0.00391,-0.00195c-1.48512,-0.51703 -2.68165,-1.18023 -3.48633,-1.99414c-0.80467,-0.81391 -1.23633,-1.75935 -1.23633,-2.97461c0,-1.43339 0.58299,-2.66436 1.67578,-3.57031c1.0928,-0.90596 2.7151,-1.48047 4.79688,-1.48047zM53.5,47.5c1.105,0 2,0.895 2,2c0,1.105 -0.895,2 -2,2c-1.105,0 -2,-0.895 -2,-2c0,-1.105 0.895,-2 2,-2zM62.5,47.5c1.105,0 2,0.895 2,2c0,1.105 -0.895,2 -2,2c-1.105,0 -2,-0.895 -2,-2c0,-1.105 0.895,-2 2,-2z"></path></g></g></svg>